<svg width="285" height="84" viewBox="0 0 285 84" fill="none" xmlns="http://www.w3.org/2000/svg">
<path d="M273.485 84H10.5186C4.62821 84 0 79.38 0 73.5V10.5C0 4.62 4.62821 0 10.5186 0H273.485C279.375 0 284.004 4.62 284.004 10.5V73.5C284.004 79.17 279.375 84 273.485 84Z" fill="black"/>
<path d="M273.485 1.68C278.323 1.68 282.321 5.67 282.321 10.5V73.5C282.321 78.33 278.323 82.32 273.485 82.32H10.5186C5.68007 82.32 1.68298 78.33 1.68298 73.5V10.5C1.68298 5.67 5.68007 1.68 10.5186 1.68H273.485ZM273.485 0H10.5186C4.62821 0 0 4.62 0 10.5V73.5C0 79.38 4.62821 84 10.5186 84H273.485C279.375 84 284.004 79.38 284.004 73.5V10.5C284.004 4.83 279.375 0 273.485 0Z" fill="#A6A6A6"/>
<path d="M143.264 45.7792C138.215 45.7792 134.218 49.5592 134.218 54.8092C134.218 59.8492 138.215 63.8392 143.264 63.8392C148.313 63.8392 152.31 60.0592 152.31 54.8092C152.31 49.3492 148.313 45.7792 143.264 45.7792ZM143.264 60.0592C140.529 60.0592 138.215 57.7492 138.215 54.5992C138.215 51.4492 140.529 49.1392 143.264 49.1392C145.998 49.1392 148.313 51.2392 148.313 54.5992C148.313 57.7492 145.998 60.0592 143.264 60.0592ZM123.699 45.7792C118.65 45.7792 114.653 49.5592 114.653 54.8092C114.653 59.8492 118.65 63.8392 123.699 63.8392C128.748 63.8392 132.745 60.0592 132.745 54.8092C132.745 49.3492 128.748 45.7792 123.699 45.7792ZM123.699 60.0592C120.964 60.0592 118.65 57.7492 118.65 54.5992C118.65 51.4492 120.964 49.1392 123.699 49.1392C126.434 49.1392 128.748 51.2392 128.748 54.5992C128.748 57.7492 126.434 60.0592 123.699 60.0592ZM100.348 48.5092V52.2892H109.394C109.183 54.3892 108.342 56.0692 107.29 57.1192C106.028 58.3792 103.924 59.8492 100.348 59.8492C94.6674 59.8492 90.46 55.4392 90.46 49.7692C90.46 44.0992 94.8778 39.6892 100.348 39.6892C103.293 39.6892 105.607 40.9492 107.29 42.4192L110.025 39.6892C107.711 37.5892 104.765 35.9092 100.558 35.9092C92.9845 35.9092 86.4629 42.2092 86.4629 49.7692C86.4629 57.3292 92.9845 63.6292 100.558 63.6292C104.765 63.6292 107.711 62.3692 110.235 59.6392C112.76 57.1192 113.601 53.5492 113.601 50.8192C113.601 49.9792 113.601 49.1392 113.391 48.5092H100.348ZM195.857 51.4492C195.015 49.3492 192.912 45.7792 188.283 45.7792C183.655 45.7792 179.868 49.3492 179.868 54.8092C179.868 59.8492 183.655 63.8392 188.704 63.8392C192.701 63.8392 195.226 61.3192 196.067 59.8492L193.122 57.7492C192.07 59.2192 190.808 60.2692 188.704 60.2692C186.6 60.2692 185.338 59.4292 184.286 57.5392L196.278 52.4992L195.857 51.4492ZM183.655 54.3892C183.655 51.0292 186.39 49.1392 188.283 49.1392C189.756 49.1392 191.229 49.9792 191.649 51.0292L183.655 54.3892ZM173.768 62.9992H177.765V36.7492H173.768V62.9992ZM167.456 47.6692C166.405 46.6192 164.722 45.5692 162.618 45.5692C158.2 45.5692 153.993 49.5592 153.993 54.5992C153.993 59.6392 157.99 63.4192 162.618 63.4192C164.722 63.4192 166.405 62.3692 167.246 61.3192H167.456V62.5792C167.456 65.9392 165.563 67.8292 162.618 67.8292C160.304 67.8292 158.621 66.1492 158.2 64.6792L154.834 66.1492C155.886 68.4592 158.41 71.3992 162.828 71.3992C167.456 71.3992 171.243 68.6692 171.243 62.1592V46.1992H167.456V47.6692ZM162.828 60.0592C160.093 60.0592 157.779 57.7492 157.779 54.5992C157.779 51.4492 160.093 49.1392 162.828 49.1392C165.563 49.1392 167.667 51.4492 167.667 54.5992C167.667 57.7492 165.563 60.0592 162.828 60.0592ZM214.159 36.7492H204.693V62.9992H208.69V53.1292H214.159C218.577 53.1292 222.785 49.9792 222.785 44.9392C222.785 39.8992 218.577 36.7492 214.159 36.7492ZM214.37 49.3492H208.69V40.3192H214.37C217.315 40.3192 218.998 42.8392 218.998 44.7292C218.787 47.0392 217.105 49.3492 214.37 49.3492ZM238.563 45.5692C235.617 45.5692 232.672 46.8292 231.62 49.5592L235.197 51.0292C236.038 49.5592 237.3 49.1392 238.773 49.1392C240.877 49.1392 242.77 50.3992 242.98 52.4992V52.7092C242.349 52.2892 240.666 51.6592 238.983 51.6592C235.197 51.6592 231.41 53.7592 231.41 57.5392C231.41 61.1092 234.565 63.4192 237.931 63.4192C240.666 63.4192 241.929 62.1592 242.98 60.8992H243.191V62.9992H246.977V52.9192C246.557 48.2992 242.98 45.5692 238.563 45.5692ZM238.142 60.0592C236.88 60.0592 234.986 59.4292 234.986 57.7492C234.986 55.6492 237.3 55.0192 239.194 55.0192C240.877 55.0192 241.718 55.4392 242.77 55.8592C242.349 58.3792 240.246 60.0592 238.142 60.0592ZM260.231 46.1992L255.813 57.5392H255.603L250.975 46.1992H246.767L253.709 62.1592L249.712 70.9792H253.709L264.438 46.1992H260.231ZM224.888 62.9992H228.885V36.7492H224.888V62.9992Z" fill="white"/>
<path d="M21.88 15.7507C21.2489 16.3807 20.8281 17.4307 20.8281 18.6907V65.1007C20.8281 66.3607 21.2489 67.4107 21.88 68.0407L22.0904 68.2507L48.1766 42.2107V42.0007V41.7907L21.88 15.7507Z" fill="#4285F4"/>
<path d="M56.802 51.0307L48.1768 42.4207V42.0007V41.7907L56.802 33.1807L57.0124 33.3907L67.3207 39.2707C70.2659 40.9507 70.2659 43.6807 67.3207 45.3607L56.802 51.0307Z" fill="#FBBC04"/>
<path d="M57.0122 50.8207L48.1765 42.0007L21.8799 68.2507C22.9317 69.3007 24.4044 69.3007 26.2977 68.4607L57.0122 50.8207Z" fill="#EA4335"/>
<path d="M57.0122 33.1809L26.2977 15.7509C24.4044 14.7009 22.9317 14.9109 21.8799 15.9609L48.1765 42.0009L57.0122 33.1809Z" fill="#34A853"/>
<path opacity="0.2" d="M56.8018 50.6108L26.2977 67.8308C24.6147 68.8808 23.1421 68.6708 22.0903 67.8308L21.8799 68.0408L22.0903 68.2508C23.1421 69.0908 24.6147 69.3008 26.2977 68.2508L56.8018 50.6108Z" fill="black"/>
<path opacity="0.12" d="M21.8796 67.8309C21.2485 67.2009 21.0381 66.1509 21.0381 64.8909V65.1009C21.0381 66.3609 21.4588 67.4109 22.09 68.0409V67.8309H21.8796Z" fill="black"/>
<path opacity="0.12" d="M67.3204 44.7307L56.8018 50.6107L57.0121 50.8207L67.3204 44.9407C68.793 44.1007 69.4241 43.0507 69.4241 42.0007C69.4241 43.0507 68.5826 43.8907 67.3204 44.7307Z" fill="black"/>
<path opacity="0.25" d="M26.2974 15.9608L67.3201 39.2708C68.5824 40.1108 69.4239 40.9508 69.4239 42.0008C69.4239 40.9508 68.7928 39.9008 67.3201 39.0608L26.2974 15.7508C23.3522 14.0708 21.0381 15.5408 21.0381 18.9008V19.1108C21.0381 15.7508 23.3522 14.2808 26.2974 15.9608Z" fill="white"/>
<path d="M86.8857 27.3V14.7H90.6725C92.5658 14.7 94.2488 15.3299 95.3007 16.3799C96.5629 17.6399 96.9836 19.11 96.9836 21C96.9836 22.89 96.3525 24.36 95.3007 25.62C94.2488 26.67 92.5658 27.3 90.6725 27.3H86.8857ZM88.3584 25.83H90.6725C92.1451 25.83 93.1969 25.41 94.0384 24.57C94.8799 23.73 95.3007 22.47 95.3007 21C95.3007 19.53 94.8799 18.2699 94.0384 17.4299C93.1969 16.5899 91.9347 16.17 90.6725 16.17H88.3584V25.83Z" fill="white" stroke="white" stroke-width="0.2" stroke-miterlimit="10"/>
<path d="M99.2988 27.3V14.7H100.982V27.3H99.2988Z" fill="white" stroke="white" stroke-width="0.2" stroke-miterlimit="10"/>
<path d="M107.501 27.5095C106.659 27.5095 105.607 27.2995 104.766 26.6695C103.924 26.0395 103.293 25.1995 103.083 24.1495L104.556 23.5195C104.766 24.1495 105.187 24.7795 105.607 25.1995C106.239 25.6195 106.87 25.8295 107.501 25.8295C108.132 25.8295 108.763 25.6195 109.394 25.1995C109.815 24.7795 110.236 24.3595 110.236 23.7295C110.236 23.0995 110.025 22.4695 109.394 22.0495C108.973 21.6295 108.132 21.2095 107.08 20.9995C106.028 20.5795 105.187 20.1595 104.556 19.7395C103.925 19.1095 103.714 18.4795 103.714 17.6395C103.714 16.7995 104.135 15.9595 104.766 15.3295C105.397 14.6995 106.449 14.2795 107.501 14.2795C108.553 14.2795 109.394 14.4895 110.025 15.1195C110.656 15.7495 111.077 16.1695 111.288 16.7995L109.815 17.4295C109.605 17.0095 109.394 16.5895 108.973 16.3795C108.553 15.9595 107.922 15.9595 107.29 15.9595C106.659 15.9595 106.239 16.1695 105.607 16.3795C105.397 16.7995 105.187 17.2195 105.187 17.8495C105.187 18.2695 105.397 18.6895 105.818 19.1095C106.239 19.5295 106.87 19.7395 107.711 19.9495C108.342 20.1595 108.763 20.3695 109.184 20.5795C109.605 20.7895 110.025 20.9995 110.446 21.4195C110.867 21.6295 111.288 22.0495 111.498 22.6795C111.708 23.0995 111.919 23.7295 111.919 24.3595C111.919 24.9895 111.708 25.6195 111.498 26.0395C111.288 26.4595 110.867 26.8795 110.446 27.0895C109.815 27.0895 109.394 27.2995 108.973 27.2995C108.342 27.5095 107.922 27.5095 107.501 27.5095Z" fill="white" stroke="white" stroke-width="0.2" stroke-miterlimit="10"/>
<path d="M115.707 27.3H114.024V14.7H118.232C119.284 14.7 120.125 15.12 120.967 15.75C121.808 16.38 122.229 17.4299 122.229 18.4799C122.229 19.5299 121.808 20.37 120.967 21.21C120.125 21.84 119.284 22.26 118.232 22.26H115.707V27.3ZM115.707 20.5799H118.442C119.073 20.5799 119.704 20.37 120.125 19.95C120.546 19.53 120.756 18.9 120.756 18.4799C120.756 17.8499 120.546 17.43 120.125 17.01C119.704 16.59 119.073 16.3799 118.442 16.3799H115.707V20.5799Z" fill="white" stroke="white" stroke-width="0.2" stroke-miterlimit="10"/>
<path d="M134.641 25.6188C133.379 26.8788 131.906 27.5088 130.013 27.5088C128.119 27.5088 126.647 26.8788 125.385 25.6188C124.122 24.3588 123.491 22.8888 123.491 20.9988C123.491 19.1088 124.122 17.6388 125.385 16.3788C126.647 15.1188 128.119 14.4888 130.013 14.4888C131.906 14.4888 133.379 15.1188 134.641 16.3788C135.903 17.6388 136.534 19.1088 136.534 20.9988C136.534 22.8888 135.903 24.3588 134.641 25.6188ZM126.647 24.5688C127.488 25.4088 128.751 26.0388 130.013 26.0388C131.275 26.0388 132.537 25.6188 133.379 24.5688C134.22 23.7288 134.851 22.4688 134.851 20.9988C134.851 19.5288 134.431 18.2688 133.379 17.4288C132.537 16.5888 131.275 15.9588 130.013 15.9588C128.751 15.9588 127.488 16.3788 126.647 17.4288C125.805 18.2688 125.174 19.5288 125.174 20.9988C125.174 22.4688 125.595 23.7288 126.647 24.5688Z" fill="white" stroke="white" stroke-width="0.2" stroke-miterlimit="10"/>
<path d="M138.637 27.3V14.7H140.53L146.631 24.57V22.05V14.7H148.314V27.3H146.631L140.109 17.01V19.5299V27.3H138.637Z" fill="white" stroke="white" stroke-width="0.2" stroke-miterlimit="10"/>
<path d="M151.259 27.3V14.7H152.942V27.3H151.259Z" fill="white" stroke="white" stroke-width="0.2" stroke-miterlimit="10"/>
<path d="M155.89 27.3V14.7H160.518C161.57 14.7 162.411 15.12 163.042 15.75C163.673 16.38 164.094 17.22 164.094 18.27C164.094 18.9 163.884 19.32 163.673 19.95C163.463 20.37 163.042 20.79 162.411 21C163.042 21.21 163.463 21.63 163.884 22.05C164.305 22.47 164.515 23.0999 164.515 23.9399C164.515 24.99 164.094 25.83 163.463 26.46C162.622 27.09 161.78 27.51 160.728 27.51H155.89V27.3ZM157.573 20.16H160.518C161.149 20.16 161.57 19.9499 161.99 19.5299C162.411 19.1099 162.622 18.69 162.622 18.27C162.622 17.85 162.201 17.22 161.99 16.8C161.57 16.38 161.149 16.17 160.518 16.17H157.573V20.16ZM157.573 25.8299H160.939C161.57 25.8299 161.99 25.62 162.411 25.2C162.832 24.78 163.042 24.3599 163.042 23.7299C163.042 23.3099 162.832 22.68 162.411 22.26C161.99 21.84 161.57 21.6299 160.939 21.6299H157.783V25.8299H157.573Z" fill="white" stroke="white" stroke-width="0.2" stroke-miterlimit="10"/>
<path d="M166.618 27.3V14.7H168.301V25.83H173.771V27.3H166.618Z" fill="white" stroke="white" stroke-width="0.2" stroke-miterlimit="10"/>
<path d="M183.238 16.17H177.558V20.16H182.817V21.63H177.558V25.62H183.238V27.3H175.875V14.7H183.238V16.17Z" fill="white" stroke="white" stroke-width="0.2" stroke-miterlimit="10"/>
<path d="M192.915 27.5095C192.073 27.5095 191.022 27.2995 190.18 26.6695C189.339 26.0395 188.707 25.1995 188.497 24.1495L189.97 23.5195C190.18 24.1495 190.601 24.7795 191.022 25.1995C191.653 25.6195 192.284 25.8295 192.915 25.8295C193.546 25.8295 194.177 25.6195 194.808 25.1995C195.229 24.7795 195.65 24.3595 195.65 23.7295C195.65 23.0995 195.439 22.4695 194.808 22.0495C194.388 21.6295 193.546 21.2095 192.494 20.9995C191.442 20.5795 190.601 20.1595 189.97 19.7395C189.339 19.1095 189.128 18.4795 189.128 17.6395C189.128 16.7995 189.549 15.9595 190.18 15.3295C190.811 14.6995 191.863 14.2795 192.915 14.2795C193.967 14.2795 194.808 14.4895 195.439 15.1195C196.071 15.7495 196.491 16.1695 196.702 16.7995L195.229 17.4295C195.019 17.0095 194.808 16.5895 194.388 16.3795C193.967 15.9595 193.336 15.9595 192.705 15.9595C192.073 15.9595 191.653 16.1695 191.022 16.3795C190.601 16.7995 190.39 17.2195 190.39 17.6395C190.39 18.0595 190.601 18.4795 191.022 18.8995C191.442 19.3195 192.073 19.5295 192.915 19.7395C193.546 19.9495 193.967 20.1595 194.388 20.3695C194.808 20.5795 195.229 20.7895 195.65 21.2095C196.071 21.4195 196.491 21.8395 196.702 22.4695C196.912 22.8895 197.122 23.5195 197.122 24.1495C197.122 24.7795 196.912 25.4095 196.702 25.8295C196.491 26.2495 196.071 26.6695 195.65 26.8795C195.229 27.0895 194.808 27.2995 194.388 27.5095C193.967 27.5095 193.546 27.5095 192.915 27.5095Z" fill="white" stroke="white" stroke-width="0.2" stroke-miterlimit="10"/>
<path d="M203.854 27.51C202.381 27.51 201.329 27.0899 200.488 26.0399C199.646 25.2 199.226 23.94 199.226 22.47V14.7H200.909V22.6799C200.909 23.7299 201.119 24.57 201.75 25.2C202.171 25.83 203.012 26.0399 204.064 26.0399C205.116 26.0399 205.747 25.83 206.378 25.2C206.799 24.57 207.22 23.7299 207.22 22.6799V14.7H208.903V22.6799C208.903 24.1499 208.482 25.41 207.641 26.25C206.589 27.09 205.326 27.51 203.854 27.51Z" fill="white" stroke="white" stroke-width="0.2" stroke-miterlimit="10"/>
<path d="M211.215 27.3V14.7H215.422C216.474 14.7 217.316 15.12 218.157 15.75C218.999 16.38 219.419 17.4299 219.419 18.4799C219.419 19.32 219.209 20.16 218.578 20.79C217.947 21.42 217.316 21.84 216.474 22.05L220.051 27.09H218.157L214.791 22.05H212.898V27.3H211.215ZM212.898 20.5799H215.422C216.053 20.5799 216.685 20.37 217.105 19.95C217.526 19.53 217.736 18.9 217.736 18.27C217.736 17.64 217.526 17.22 217.105 16.8C216.685 16.38 216.053 16.17 215.422 16.17H212.687V20.5799H212.898Z" fill="white" stroke="white" stroke-width="0.2" stroke-miterlimit="10"/>
</svg>
