<svg width="285" height="84" viewBox="0 0 285 84" fill="none" xmlns="http://www.w3.org/2000/svg">
<g clip-path="url(#clip0_5332_10980)">
<path d="M273.607 84H10.6445C4.75413 84 0.125977 79.38 0.125977 73.5V10.5C0.125977 4.62 4.75413 0 10.6445 0H273.607C279.498 0 284.126 4.62 284.126 10.5V73.5C284.126 79.17 279.498 84 273.607 84Z" fill="black"/>
<path d="M273.607 1.68C278.446 1.68 282.443 5.67 282.443 10.5V73.5C282.443 78.33 278.446 82.32 273.607 82.32H10.6445C5.80598 82.32 1.80894 78.33 1.80894 73.5V10.5C1.80894 5.67 5.80598 1.68 10.6445 1.68H273.607ZM273.607 0H10.6445C4.75413 0 0.125977 4.62 0.125977 10.5V73.5C0.125977 79.38 4.75413 84 10.6445 84H273.607C279.498 84 284.126 79.38 284.126 73.5V10.5C284.126 4.83 279.498 0 273.607 0Z" fill="#A6A6A6"/>
<path d="M51.6867 42.6314C51.7092 40.8786 52.1748 39.16 53.0401 37.6355C53.9053 36.111 55.1421 34.8301 56.6354 33.9121C55.6868 32.5572 54.4353 31.4422 52.9804 30.6557C51.5254 29.8691 49.9071 29.4326 48.254 29.3809C44.7276 29.0108 41.3089 31.4911 39.5119 31.4911C37.6801 31.4911 34.9134 29.4177 31.9341 29.479C30.0069 29.5412 28.1288 30.1016 26.4827 31.1055C24.8365 32.1095 23.4785 33.5227 22.5409 35.2075C18.4795 42.2392 21.509 52.5734 25.3994 58.2573C27.3459 61.0405 29.6208 64.1494 32.5975 64.0392C35.5103 63.9184 36.5982 62.1818 40.1142 62.1818C43.5976 62.1818 44.6183 64.0392 47.6553 63.9691C50.7809 63.9184 52.7502 61.1735 54.6284 58.3639C56.0269 56.3807 57.1031 54.1889 57.817 51.8696C56.0011 51.1016 54.4515 49.816 53.3614 48.1732C52.2712 46.5304 51.6888 44.603 51.6867 42.6314Z" fill="white"/>
<path d="M45.9506 25.6428C47.6548 23.597 48.4944 20.9674 48.2911 18.3125C45.6874 18.586 43.2824 19.8303 41.5552 21.7977C40.7107 22.7588 40.0639 23.8769 39.6517 25.0881C39.2396 26.2993 39.0703 27.5799 39.1534 28.8566C40.4557 28.87 41.744 28.5877 42.9214 28.0311C44.0988 27.4744 45.1345 26.6578 45.9506 25.6428Z" fill="white"/>
<path d="M74.5423 30.8733V20.1139H70.6006V18.343H80.4218V20.1139H76.4884V30.8733H74.5423Z" fill="white"/>
<path d="M89.4718 28.3202C89.2182 29.1844 88.6689 29.932 87.9198 30.4321C87.1708 30.9322 86.2697 31.153 85.3743 31.0559C84.7513 31.0723 84.1322 30.953 83.56 30.7062C82.9877 30.4594 82.476 30.091 82.0604 29.6266C81.6448 29.1622 81.3352 28.613 81.1532 28.0169C80.9711 27.4209 80.9209 26.7924 81.0061 26.175C80.9232 25.5558 80.9742 24.9259 81.1559 24.3281C81.3375 23.7303 81.6454 23.1785 82.0589 22.71C82.4723 22.2416 82.9815 21.8674 83.5521 21.6129C84.1227 21.3583 84.7413 21.2294 85.3661 21.2347C87.9973 21.2347 89.5846 23.0323 89.5846 26.0017V26.6528H82.9072V26.7574C82.878 27.1044 82.9216 27.4537 83.0353 27.7829C83.1489 28.1121 83.3301 28.4139 83.5672 28.6689C83.8043 28.924 84.0921 29.1267 84.4121 29.264C84.7322 29.4013 85.0774 29.4703 85.4256 29.4664C85.872 29.52 86.3242 29.4396 86.7248 29.2355C87.1254 29.0313 87.4563 28.7127 87.6753 28.32L89.4718 28.3202ZM82.9072 25.2727H87.6835C87.707 24.9553 87.6639 24.6366 87.5569 24.3368C87.4499 24.0371 87.2814 23.7631 87.0621 23.5324C86.8429 23.3017 86.5779 23.1194 86.284 22.9973C85.9902 22.8751 85.674 22.8158 85.3559 22.8231C85.0331 22.819 84.7128 22.8796 84.4138 23.0013C84.1148 23.1229 83.8432 23.3032 83.615 23.5315C83.3868 23.7598 83.2066 24.0315 83.085 24.3306C82.9635 24.6296 82.903 24.9499 82.9072 25.2727H82.9072ZM84.2443 19.8361L86.4243 16.8491H88.6125L86.1721 19.8361H84.2443Z" fill="white"/>
<path d="M92.1768 17.7258H94.043V30.8734H92.1768V17.7258Z" fill="white"/>
<path d="M105.103 28.3202C104.849 29.1844 104.3 29.932 103.551 30.4321C102.802 30.9322 101.901 31.153 101.005 31.0559C100.382 31.0723 99.7631 30.953 99.1908 30.7062C98.6186 30.4594 98.1069 30.091 97.6913 29.6266C97.2757 29.1622 96.9661 28.613 96.784 28.0169C96.602 27.4209 96.5518 26.7924 96.637 26.175C96.554 25.5558 96.6051 24.9259 96.7867 24.3281C96.9684 23.7303 97.2763 23.1785 97.6897 22.71C98.1031 22.2416 98.6124 21.8674 99.183 21.6129C99.7536 21.3583 100.372 21.2294 100.997 21.2347C103.628 21.2347 105.215 23.0323 105.215 26.0017V26.6528H98.538V26.7574C98.5088 27.1044 98.5524 27.4537 98.6661 27.7829C98.7797 28.1121 98.9609 28.4139 99.198 28.6689C99.4351 28.924 99.7229 29.1267 100.043 29.264C100.363 29.4013 100.708 29.4703 101.056 29.4664C101.503 29.52 101.955 29.4396 102.356 29.2355C102.756 29.0313 103.087 28.7127 103.306 28.32L105.103 28.3202ZM98.538 25.2727H103.314C103.338 24.9553 103.295 24.6366 103.188 24.3368C103.081 24.0371 102.912 23.7631 102.693 23.5324C102.474 23.3017 102.209 23.1194 101.915 22.9973C101.621 22.8751 101.305 22.8158 100.987 22.8231C100.664 22.819 100.344 22.8796 100.045 23.0013C99.7456 23.123 99.474 23.3033 99.2458 23.5316C99.0176 23.7599 98.8374 24.0315 98.7159 24.3306C98.5943 24.6296 98.5338 24.9499 98.538 25.2727ZM99.8751 19.8361L102.055 16.8491H104.243L101.803 19.8361H99.8751Z" fill="white"/>
<path d="M113.914 24.5077C113.795 24.0174 113.504 23.5858 113.094 23.2913C112.685 22.9967 112.183 22.8586 111.68 22.9019C110.118 22.9019 109.162 24.0996 109.162 26.1145C109.162 28.1643 110.126 29.3886 111.68 29.3886C112.178 29.4462 112.68 29.3201 113.091 29.0338C113.502 28.7476 113.795 28.3209 113.914 27.8341H115.729C115.609 28.7916 115.119 29.6644 114.365 30.2662C113.611 30.8681 112.651 31.1515 111.691 31.0559C111.058 31.0758 110.429 30.9574 109.848 30.7089C109.266 30.4604 108.745 30.0878 108.323 29.6171C107.9 29.1465 107.585 28.5892 107.4 27.9842C107.216 27.3792 107.165 26.7411 107.253 26.1146C107.17 25.4927 107.223 24.8601 107.41 24.2611C107.596 23.662 107.912 23.111 108.333 22.6463C108.755 22.1816 109.273 21.8146 109.851 21.5708C110.429 21.327 111.053 21.2123 111.68 21.2347C112.648 21.1456 113.613 21.4377 114.369 22.049C115.125 22.6602 115.613 23.5424 115.729 24.5078L113.914 24.5077Z" fill="white"/>
<path d="M118.205 17.7258H120.055V22.9369H120.203C120.451 22.3923 120.861 21.9375 121.377 21.6343C121.893 21.3312 122.489 21.1945 123.086 21.2429C123.544 21.218 124.001 21.2944 124.426 21.4667C124.851 21.639 125.232 21.9029 125.543 22.2396C125.854 22.5764 126.087 22.9776 126.225 23.4146C126.364 23.8517 126.404 24.3139 126.343 24.7682V30.8734H124.474V25.2286C124.474 23.7182 123.771 22.9533 122.452 22.9533C122.131 22.9269 121.809 22.971 121.507 23.0825C121.205 23.1939 120.931 23.3699 120.704 23.5983C120.477 23.8266 120.303 24.1017 120.194 24.4044C120.085 24.7071 120.043 25.03 120.071 25.3506V30.8734H118.205L118.205 17.7258Z" fill="white"/>
<path d="M128.689 28.1991C128.689 26.4969 129.957 25.5156 132.207 25.3762L134.768 25.2285V24.4123C134.768 23.4136 134.108 22.8496 132.832 22.8496C131.79 22.8496 131.068 23.2321 130.861 23.9006H129.054C129.245 22.2764 130.773 21.2346 132.918 21.2346C135.289 21.2346 136.625 22.4148 136.625 24.4123V30.8733H134.829V29.5444H134.682C134.382 30.0211 133.961 30.4097 133.462 30.6705C132.963 30.9314 132.404 31.0551 131.842 31.0291C131.445 31.0704 131.043 31.028 130.664 30.9048C130.284 30.7815 129.935 30.5801 129.638 30.3134C129.341 30.0468 129.103 29.7209 128.94 29.3567C128.776 28.9925 128.691 28.5982 128.689 28.1991ZM134.768 27.391V26.6005L132.459 26.7481C131.157 26.8353 130.566 27.2783 130.566 28.1119C130.566 28.963 131.304 29.4582 132.319 29.4582C132.617 29.4884 132.917 29.4583 133.203 29.3699C133.489 29.2815 133.753 29.1366 133.982 28.9437C134.21 28.7509 134.398 28.514 134.533 28.2473C134.668 27.9805 134.748 27.6894 134.768 27.3911L134.768 27.391Z" fill="white"/>
<path d="M139.547 21.4173H141.343V22.8672H141.483C141.684 22.3639 142.039 21.9373 142.498 21.6486C142.957 21.3599 143.495 21.224 144.036 21.2604C144.316 21.2567 144.595 21.2828 144.869 21.3384V23.1801C144.526 23.1069 144.177 23.0691 143.827 23.0673C143.519 23.0396 143.209 23.0767 142.916 23.1761C142.624 23.2754 142.355 23.4349 142.128 23.6443C141.9 23.8536 141.719 24.1082 141.596 24.3917C141.473 24.6752 141.411 24.9813 141.413 25.2903V30.8735H139.547L139.547 21.4173Z" fill="white"/>
<path d="M146.585 31.8198H148.494C148.652 32.5057 149.442 32.9487 150.701 32.9487C152.256 32.9487 153.176 32.2104 153.176 30.9605V29.1455H153.037C152.744 29.6536 152.317 30.0708 151.802 30.3511C151.287 30.6314 150.704 30.7639 150.119 30.7339C147.705 30.7339 146.212 28.8677 146.212 26.0365C146.212 23.1532 147.721 21.2603 150.137 21.2603C150.737 21.2394 151.332 21.3838 151.855 21.6779C152.379 21.9719 152.812 22.4042 153.107 22.9276H153.254V21.4172H155.043V30.9512C155.043 33.1137 153.349 34.4857 150.674 34.4857C148.312 34.4858 146.784 33.4266 146.585 31.8198ZM153.211 26.0273C153.211 24.1436 152.237 22.9368 150.648 22.9368C149.042 22.9368 148.14 24.1437 148.14 26.0273C148.14 27.912 149.042 29.1189 150.648 29.1189C152.247 29.1189 153.211 27.9212 153.211 26.0272V26.0273Z" fill="white"/>
<path d="M166.012 28.3202C165.758 29.1845 165.209 29.932 164.46 30.4322C163.711 30.9323 162.81 31.1531 161.914 31.056C161.291 31.0724 160.672 30.9531 160.1 30.7063C159.528 30.4595 159.016 30.0911 158.6 29.6267C158.185 29.1623 157.875 28.613 157.693 28.017C157.511 27.421 157.461 26.7925 157.546 26.1751C157.463 25.5559 157.514 24.926 157.696 24.3282C157.878 23.7304 158.185 23.1786 158.599 22.7101C159.012 22.2417 159.522 21.8675 160.092 21.613C160.663 21.3584 161.281 21.2295 161.906 21.2348C164.537 21.2348 166.125 23.0324 166.125 26.0018V26.6529H159.447V26.7575C159.418 27.1045 159.462 27.4538 159.575 27.783C159.689 28.1121 159.87 28.4139 160.107 28.669C160.344 28.924 160.632 29.1267 160.952 29.2641C161.272 29.4014 161.617 29.4704 161.966 29.4665C162.412 29.5201 162.864 29.4397 163.265 29.2356C163.666 29.0314 163.996 28.7128 164.215 28.3201L166.012 28.3202ZM159.447 25.2728H164.223C164.247 24.9554 164.204 24.6366 164.097 24.3369C163.99 24.0372 163.821 23.7632 163.602 23.5325C163.383 23.3018 163.118 23.1195 162.824 22.9974C162.53 22.8752 162.214 22.8158 161.896 22.8231C161.573 22.8191 161.253 22.8797 160.954 23.0014C160.655 23.1231 160.383 23.3034 160.155 23.5317C159.927 23.76 159.747 24.0316 159.625 24.3307C159.504 24.6297 159.443 24.95 159.447 25.2728H159.447Z" fill="white"/>
<path d="M168.631 21.4173H170.427V22.8672H170.567C170.768 22.3639 171.123 21.9373 171.582 21.6486C172.041 21.3599 172.579 21.224 173.12 21.2604C173.4 21.2567 173.679 21.2828 173.953 21.3384V23.1801C173.61 23.1069 173.261 23.0691 172.911 23.0673C172.603 23.0396 172.293 23.0767 172 23.176C171.708 23.2754 171.439 23.4349 171.212 23.6442C170.984 23.8536 170.803 24.1082 170.68 24.3917C170.557 24.6752 170.495 24.9813 170.497 25.2903V30.8735H168.631V21.4173Z" fill="white"/>
<path d="M180.678 26.1412C180.678 23.1532 182.214 21.2603 184.603 21.2603C185.194 21.2331 185.78 21.3747 186.294 21.6684C186.807 21.9622 187.227 22.3961 187.503 22.9193H187.642V17.7258H189.508V30.8734H187.72V29.3794H187.572C187.275 29.8991 186.841 30.3276 186.318 30.6184C185.794 30.9092 185.201 31.0513 184.603 31.0292C182.197 31.0292 180.678 29.1364 180.678 26.1412ZM182.606 26.1412C182.606 28.1469 183.551 29.3538 185.132 29.3538C186.705 29.3538 187.677 28.1295 187.677 26.1494C187.677 24.1786 186.695 22.9369 185.132 22.9369C183.561 22.9369 182.605 24.152 182.605 26.1412H182.606Z" fill="white"/>
<path d="M192.03 28.1991C192.03 26.4969 193.298 25.5156 195.547 25.3762L198.109 25.2285V24.4123C198.109 23.4136 197.448 22.8496 196.173 22.8496C195.131 22.8496 194.409 23.2321 194.202 23.9006H192.395C192.586 22.2764 194.114 21.2346 196.259 21.2346C198.63 21.2346 199.967 22.4148 199.967 24.4123V30.8733H198.17V29.5444H198.023C197.723 30.0211 197.302 30.4097 196.803 30.6705C196.304 30.9314 195.745 31.0551 195.182 31.0291C194.785 31.0704 194.384 31.028 194.005 30.9048C193.625 30.7815 193.275 30.58 192.978 30.3134C192.681 30.0468 192.444 29.7209 192.28 29.3567C192.117 28.9925 192.032 28.5982 192.03 28.1991ZM198.109 27.391V26.6005L195.8 26.7481C194.497 26.8353 193.907 27.2783 193.907 28.1119C193.907 28.963 194.645 29.4582 195.66 29.4582C195.958 29.4883 196.258 29.4583 196.544 29.3699C196.829 29.2815 197.094 29.1366 197.323 28.9437C197.551 28.7508 197.739 28.514 197.874 28.2473C198.009 27.9805 198.089 27.6893 198.109 27.3911V27.391Z" fill="white"/>
<path d="M202.89 21.4172H204.686V22.9194H204.826C205.062 22.3798 205.461 21.9276 205.967 21.6256C206.473 21.3236 207.06 21.1869 207.647 21.2347C208.108 21.2001 208.57 21.2694 208.999 21.4376C209.429 21.6058 209.815 21.8686 210.13 22.2063C210.444 22.5441 210.678 22.9483 210.815 23.3889C210.952 23.8295 210.988 24.2953 210.921 24.7517V30.8732H209.054V25.2204C209.054 23.7007 208.394 22.945 207.014 22.945C206.701 22.9305 206.39 22.9836 206.1 23.1009C205.81 23.2181 205.549 23.3967 205.334 23.6243C205.12 23.8519 204.957 24.1232 204.857 24.4195C204.757 24.7159 204.723 25.0304 204.756 25.3413V30.8733H202.89V21.4172Z" fill="white"/>
<path d="M217.264 21.2346C219.39 21.2346 220.781 22.2241 220.963 23.8914H219.173C219.001 23.1972 218.322 22.7543 217.264 22.7543C216.222 22.7543 215.43 23.2485 215.43 23.9868C215.43 24.5517 215.908 24.9076 216.934 25.1424L218.504 25.5064C220.303 25.9237 221.146 26.6969 221.146 28.0863C221.146 29.8664 219.487 31.0558 217.229 31.0558C214.979 31.0558 213.513 30.0396 213.347 28.3642H215.215C215.376 28.7629 215.666 29.0961 216.039 29.3101C216.412 29.5241 216.846 29.6066 217.272 29.5444C218.435 29.5444 219.261 29.0236 219.261 28.2677C219.261 27.7038 218.818 27.3388 217.871 27.1132L216.222 26.7307C214.423 26.3052 213.591 25.4982 213.591 24.0913C213.591 22.4148 215.127 21.2346 217.264 21.2346Z" fill="white"/>
<path d="M73.582 37.9404H77.4867V64.0192H73.582V37.9404Z" fill="white"/>
<path d="M82.1914 47.4827L84.3242 37.9404H88.1182L85.5342 47.4827H82.1914Z" fill="white"/>
<path d="M102.873 56.9706H92.9333L90.5462 64.0192H86.3359L95.7511 37.9404H100.125L109.541 64.0192H105.259L102.873 56.9706ZM93.9628 53.7181H101.842L97.9578 42.2778H97.8491L93.9628 53.7181Z" fill="white"/>
<path d="M129.871 54.5139C129.871 60.4222 126.709 64.2182 121.937 64.2182C120.728 64.2814 119.526 64.003 118.468 63.4147C117.41 62.8264 116.539 61.9521 115.955 60.8918H115.865V70.309H111.962V45.0054H115.739V48.1677H115.811C116.422 47.1125 117.308 46.2427 118.374 45.6509C119.44 45.059 120.646 44.7672 121.865 44.8065C126.691 44.8065 129.871 48.621 129.871 54.5139ZM125.86 54.5139C125.86 50.6636 123.871 48.1329 120.836 48.1329C117.854 48.1329 115.848 50.7169 115.848 54.5139C115.848 58.3448 117.854 60.9103 120.836 60.9103C123.871 60.9103 125.86 58.3981 125.86 54.5139Z" fill="white"/>
<path d="M150.797 54.5139C150.797 60.4222 147.635 64.2182 142.863 64.2182C141.654 64.2814 140.452 64.003 139.394 63.4147C138.336 62.8264 137.465 61.9521 136.881 60.8918H136.79V70.309H132.889V45.0054H136.665V48.1677H136.737C137.348 47.1125 138.234 46.2427 139.3 45.6509C140.366 45.059 141.572 44.7672 142.791 44.8065C147.616 44.8065 150.797 48.621 150.797 54.5139ZM146.786 54.5139C146.786 50.6636 144.797 48.1329 141.761 48.1329C138.78 48.1329 136.774 50.7169 136.774 54.5139C136.774 58.3448 138.78 60.9103 141.761 60.9103C144.797 60.9103 146.786 58.3981 146.786 54.5139Z" fill="white"/>
<path d="M164.628 56.7532C164.917 59.3393 167.429 61.0372 170.862 61.0372C174.152 61.0372 176.518 59.3392 176.518 57.0074C176.518 54.9833 175.091 53.7713 171.711 52.9407L168.331 52.1256C163.543 50.969 161.32 48.7295 161.32 45.0956C161.32 40.5961 165.241 37.5056 170.809 37.5056C176.319 37.5056 180.097 40.5961 180.224 45.0956H176.284C176.049 42.4931 173.897 40.9222 170.753 40.9222C167.61 40.9222 165.458 42.5116 165.458 44.8249C165.458 46.6685 166.832 47.7534 170.194 48.5839L173.067 49.2893C178.417 50.5547 180.64 52.7049 180.64 56.5194C180.64 61.3982 176.754 64.4538 170.573 64.4538C164.79 64.4538 160.885 61.47 160.633 56.7531L164.628 56.7532Z" fill="white"/>
<path d="M189.065 40.5059V45.0053H192.68V48.0958H189.065V58.5784C189.065 60.2067 189.788 60.9655 191.378 60.9655C191.807 60.958 192.236 60.9279 192.662 60.8752V63.9473C191.947 64.0808 191.221 64.1412 190.494 64.1277C186.645 64.1277 185.143 62.6819 185.143 58.9946V48.0958H182.379V45.0053H185.143V40.5059H189.065Z" fill="white"/>
<path d="M194.771 54.5137C194.771 48.5306 198.295 44.7715 203.789 44.7715C209.301 44.7715 212.808 48.5305 212.808 54.5137C212.808 60.5123 209.32 64.2549 203.789 64.2549C198.26 64.2549 194.771 60.5122 194.771 54.5137ZM208.832 54.5137C208.832 50.4091 206.951 47.9871 203.789 47.9871C200.626 47.9871 198.748 50.4275 198.748 54.5137C198.748 58.6337 200.626 61.0373 203.789 61.0373C206.951 61.0373 208.832 58.6337 208.832 54.5137H208.832Z" fill="white"/>
<path d="M216.026 45.0052H219.749V48.2413H219.839C220.091 47.2306 220.683 46.3374 221.516 45.7119C222.348 45.0863 223.371 44.7665 224.412 44.8063C224.862 44.8047 225.31 44.8536 225.749 44.9519V48.6022C225.181 48.4287 224.589 48.3491 223.996 48.3664C223.429 48.3434 222.863 48.4435 222.339 48.6596C221.814 48.8757 221.342 49.2029 220.956 49.6185C220.569 50.0342 220.278 50.5286 220.1 51.0677C219.923 51.6068 219.865 52.1779 219.929 52.7417V64.019H216.026L216.026 45.0052Z" fill="white"/>
<path d="M243.741 58.4348C243.216 61.8863 239.854 64.2549 235.554 64.2549C230.023 64.2549 226.59 60.5492 226.59 54.604C226.59 48.6393 230.041 44.7715 235.39 44.7715C240.65 44.7715 243.958 48.385 243.958 54.1507V55.4878H230.529V55.7237C230.467 56.4234 230.555 57.1283 230.786 57.7916C231.018 58.4548 231.388 59.0613 231.871 59.5706C232.355 60.08 232.942 60.4806 233.592 60.7458C234.243 61.0111 234.942 61.1349 235.644 61.109C236.566 61.1954 237.492 60.9818 238.283 60.5C239.074 60.0182 239.688 59.2939 240.035 58.4348L243.741 58.4348ZM230.548 52.7603H240.053C240.088 52.131 239.993 51.5013 239.773 50.9107C239.554 50.3201 239.214 49.7812 238.776 49.328C238.338 48.8748 237.811 48.517 237.229 48.2771C236.646 48.0371 236.02 47.9202 235.39 47.9337C234.754 47.93 234.124 48.0522 233.536 48.2932C232.948 48.5342 232.413 48.8894 231.963 49.3381C231.513 49.7868 231.156 50.3203 230.913 50.9076C230.67 51.495 230.546 52.1247 230.548 52.7603Z" fill="white"/>
</g>
<defs>
<clipPath id="clip0_5332_10980">
<rect width="285" height="84" fill="white"/>
</clipPath>
</defs>
</svg>
